<?xml version="1.0" encoding="UTF-8" standalone="no"?>
<!DOCTYPE svg PUBLIC "-//W3C//DTD SVG 1.1//EN"
 "http://www.w3.org/Graphics/SVG/1.1/DTD/svg11.dtd">
<!-- Generated by graphviz version 14.1.2 (20260124.0452)
 -->
<!-- Title: bounded_buffer_semaphores Pages: 1 -->
<svg width="908pt" height="164pt"
 viewBox="0.00 0.00 908.00 164.00" xmlns="http://www.w3.org/2000/svg" xmlns:xlink="http://www.w3.org/1999/xlink">
<g id="graph0" class="graph" transform="scale(1 1) rotate(0) translate(4 159.75)">
<title>bounded_buffer_semaphores</title>
<polygon fill="white" stroke="none" points="-4,4 -4,-159.75 903.84,-159.75 903.84,4 -4,4"/>
<text xml:space="preserve" text-anchor="middle" x="449.92" y="-136.55" font-family="Helvetica,sans-Serif" font-size="16.00">Bounded Buffer (Producer–Consumer) with Semaphores</text>
<!-- producer -->
<g id="node1" class="node">
<title>producer</title>
<path fill="none" stroke="#2b2b2b" d="M235.67,-131.25C235.67,-131.25 113,-131.25 113,-131.25 107,-131.25 101,-125.25 101,-119.25 101,-119.25 101,-107.25 101,-107.25 101,-101.25 107,-95.25 113,-95.25 113,-95.25 235.67,-95.25 235.67,-95.25 241.67,-95.25 247.67,-101.25 247.67,-107.25 247.67,-107.25 247.67,-119.25 247.67,-119.25 247.67,-125.25 241.67,-131.25 235.67,-131.25"/>
<text xml:space="preserve" text-anchor="middle" x="174.34" y="-108.8" font-family="Helvetica,sans-Serif" font-size="11.00">Producer task\nPutItem()</text>
</g>
<!-- buffer -->
<g id="node2" class="node">
<title>buffer</title>
<path fill="none" stroke="#2b2b2b" d="M538.55,-131.25C538.55,-131.25 334.13,-131.25 334.13,-131.25 328.13,-131.25 322.13,-125.25 322.13,-119.25 322.13,-119.25 322.13,-107.25 322.13,-107.25 322.13,-101.25 328.13,-95.25 334.13,-95.25 334.13,-95.25 538.55,-95.25 538.55,-95.25 544.55,-95.25 550.55,-101.25 550.55,-107.25 550.55,-107.25 550.55,-119.25 550.55,-119.25 550.55,-125.25 544.55,-131.25 538.55,-131.25"/>
<text xml:space="preserve" text-anchor="middle" x="436.34" y="-108.8" font-family="Helvetica,sans-Serif" font-size="11.00">Ring buffer\nK slots\n(buf[], putIdx, getIdx)</text>
</g>
<!-- producer&#45;&gt;buffer -->
<g id="edge1" class="edge">
<title>producer&#45;&gt;buffer</title>
<path fill="none" stroke="#2b2b2b" d="M248.01,-113.25C268.14,-113.25 290.52,-113.25 312.63,-113.25"/>
<polygon fill="#2b2b2b" stroke="#2b2b2b" points="312.56,-116.05 320.56,-113.25 312.56,-110.45 312.56,-116.05"/>
<text xml:space="preserve" text-anchor="middle" x="284.9" y="-118" font-family="Helvetica,sans-Serif" font-size="10.00">write item</text>
</g>
<!-- slotSema -->
<g id="node4" class="node">
<title>slotSema</title>
<path fill="none" stroke="#2b2b2b" d="M188.67,-36C188.67,-36 12,-36 12,-36 6,-36 0,-30 0,-24 0,-24 0,-12 0,-12 0,-6 6,0 12,0 12,0 188.67,0 188.67,0 194.67,0 200.67,-6 200.67,-12 200.67,-12 200.67,-24 200.67,-24 200.67,-30 194.67,-36 188.67,-36"/>
<text xml:space="preserve" text-anchor="middle" x="100.34" y="-13.55" font-family="Helvetica,sans-Serif" font-size="11.00">slotSema\nfree slots\ninit=K, max=K</text>
</g>
<!-- producer&#45;&gt;slotSema -->
<g id="edge3" class="edge">
<title>producer&#45;&gt;slotSema</title>
<path fill="none" stroke="#2b2b2b" d="M138.08,-94.86C114.77,-83.69 88.84,-71.25 88.84,-71.25 88.84,-71.25 88.84,-60 88.84,-60 88.84,-60 90.74,-53.2 93.01,-45.13"/>
<polygon fill="#2b2b2b" stroke="#2b2b2b" points="95.65,-46.07 95.12,-37.61 90.26,-44.55 95.65,-46.07"/>
<text xml:space="preserve" text-anchor="middle" x="125.59" y="-61.75" font-family="Helvetica,sans-Serif" font-size="10.00">pend() before put</text>
</g>
<!-- acquireSema -->
<g id="node5" class="node">
<title>acquireSema</title>
<path fill="none" stroke="#2b2b2b" d="M454.42,-36C454.42,-36 276.25,-36 276.25,-36 270.25,-36 264.25,-30 264.25,-24 264.25,-24 264.25,-12 264.25,-12 264.25,-6 270.25,0 276.25,0 276.25,0 454.42,0 454.42,0 460.42,0 466.42,-6 466.42,-12 466.42,-12 466.42,-24 466.42,-24 466.42,-30 460.42,-36 454.42,-36"/>
<text xml:space="preserve" text-anchor="middle" x="365.34" y="-13.55" font-family="Helvetica,sans-Serif" font-size="11.00">acquireSema\nmutex\ninit=1, max=1</text>
</g>
<!-- producer&#45;&gt;acquireSema -->
<g id="edge7" class="edge">
<title>producer&#45;&gt;acquireSema</title>
<path fill="none" stroke="#2b2b2b" stroke-dasharray="5,2" d="M192.65,-94.85C208.65,-79.65 229.34,-60 229.34,-60 229.34,-60 264.4,-49.43 298.92,-39.02"/>
<polygon fill="#2b2b2b" stroke="#2b2b2b" points="299.36,-41.81 306.21,-36.82 297.74,-36.45 299.36,-41.81"/>
<text xml:space="preserve" text-anchor="middle" x="292.34" y="-61.75" font-family="Helvetica,sans-Serif" font-size="10.00">pend()/post()\ncritical section</text>
</g>
<!-- itemSema -->
<g id="node6" class="node">
<title>itemSema</title>
<path fill="none" stroke="#2b2b2b" d="M702.8,-36C702.8,-36 541.88,-36 541.88,-36 535.88,-36 529.88,-30 529.88,-24 529.88,-24 529.88,-12 529.88,-12 529.88,-6 535.88,0 541.88,0 541.88,0 702.8,0 702.8,0 708.8,0 714.8,-6 714.8,-12 714.8,-12 714.8,-24 714.8,-24 714.8,-30 708.8,-36 702.8,-36"/>
<text xml:space="preserve" text-anchor="middle" x="622.34" y="-13.55" font-family="Helvetica,sans-Serif" font-size="11.00">itemSema\nitems\ninit=0, max=K</text>
</g>
<!-- producer&#45;&gt;itemSema -->
<g id="edge6" class="edge">
<title>producer&#45;&gt;itemSema</title>
<path fill="none" stroke="#2b2b2b" d="M248.05,-102.76C278.29,-98.86 306.34,-95.25 306.34,-95.25 306.34,-95.25 562.34,-71.25 562.34,-71.25 562.34,-71.25 579.31,-56.47 595.2,-42.63"/>
<polygon fill="#2b2b2b" stroke="#2b2b2b" points="597.02,-44.76 601.21,-37.39 593.34,-40.53 597.02,-44.76"/>
<text xml:space="preserve" text-anchor="middle" x="605.69" y="-61.75" font-family="Helvetica,sans-Serif" font-size="10.00">post() after put</text>
</g>
<!-- consumer -->
<g id="node3" class="node">
<title>consumer</title>
<path fill="none" stroke="#2b2b2b" d="M764.05,-131.25C764.05,-131.25 634.62,-131.25 634.62,-131.25 628.62,-131.25 622.62,-125.25 622.62,-119.25 622.62,-119.25 622.62,-107.25 622.62,-107.25 622.62,-101.25 628.62,-95.25 634.62,-95.25 634.62,-95.25 764.05,-95.25 764.05,-95.25 770.05,-95.25 776.05,-101.25 776.05,-107.25 776.05,-107.25 776.05,-119.25 776.05,-119.25 776.05,-125.25 770.05,-131.25 764.05,-131.25"/>
<text xml:space="preserve" text-anchor="middle" x="699.34" y="-108.8" font-family="Helvetica,sans-Serif" font-size="11.00">Consumer task\nGetItem()</text>
</g>
<!-- buffer&#45;&gt;consumer -->
<g id="edge2" class="edge">
<title>buffer&#45;&gt;consumer</title>
<path fill="none" stroke="#2b2b2b" d="M550.93,-113.25C571.72,-113.25 593.08,-113.25 612.9,-113.25"/>
<polygon fill="#2b2b2b" stroke="#2b2b2b" points="612.67,-116.05 620.67,-113.25 612.67,-110.45 612.67,-116.05"/>
<text xml:space="preserve" text-anchor="middle" x="586.59" y="-118" font-family="Helvetica,sans-Serif" font-size="10.00">read item</text>
</g>
<!-- consumer&#45;&gt;slotSema -->
<g id="edge4" class="edge">
<title>consumer&#45;&gt;slotSema</title>
<path fill="none" stroke="#2b2b2b" d="M622.2,-97.1C562.73,-85.42 490.59,-71.25 490.59,-71.25 490.59,-71.25 461.34,-60 461.34,-60 461.34,-60 248.34,-36 248.34,-36 248.34,-36 232.09,-34.13 210.36,-31.64"/>
<polygon fill="#2b2b2b" stroke="#2b2b2b" points="210.87,-28.88 202.6,-30.75 210.23,-34.44 210.87,-28.88"/>
<text xml:space="preserve" text-anchor="middle" x="522.46" y="-61.75" font-family="Helvetica,sans-Serif" font-size="10.00">post() after get</text>
</g>
<!-- consumer&#45;&gt;acquireSema -->
<g id="edge8" class="edge">
<title>consumer&#45;&gt;acquireSema</title>
<path fill="none" stroke="#2b2b2b" stroke-dasharray="5,2" d="M687.35,-94.85C676.88,-79.65 663.34,-60 663.34,-60 663.34,-60 560.65,-45.87 475.83,-34.2"/>
<polygon fill="#2b2b2b" stroke="#2b2b2b" points="476.45,-31.46 468.14,-33.14 475.68,-37.01 476.45,-31.46"/>
<text xml:space="preserve" text-anchor="middle" x="733.22" y="-61.75" font-family="Helvetica,sans-Serif" font-size="10.00">pend()/post()\ncritical section</text>
</g>
<!-- consumer&#45;&gt;itemSema -->
<g id="edge5" class="edge">
<title>consumer&#45;&gt;itemSema</title>
<path fill="none" stroke="#2b2b2b" d="M753.19,-94.86C787.81,-83.69 826.34,-71.25 826.34,-71.25 826.34,-71.25 826.34,-60 826.34,-60 826.34,-60 771.23,-48.92 718.3,-38.29"/>
<polygon fill="#2b2b2b" stroke="#2b2b2b" points="719.02,-35.58 710.63,-36.75 717.92,-41.07 719.02,-35.58"/>
<text xml:space="preserve" text-anchor="middle" x="863.09" y="-61.75" font-family="Helvetica,sans-Serif" font-size="10.00">pend() before get</text>
</g>
<!-- slotSema&#45;&gt;acquireSema -->
<!-- acquireSema&#45;&gt;buffer -->
<g id="edge9" class="edge">
<title>acquireSema&#45;&gt;buffer</title>
<path fill="none" stroke="#2b2b2b" stroke-dasharray="1,5" d="M364.29,-36.15C363.6,-47.39 362.84,-60 362.84,-60 362.84,-60 362.84,-71.25 362.84,-71.25 362.84,-71.25 385.13,-83.69 405.16,-94.86"/>
<text xml:space="preserve" text-anchor="middle" x="410.09" y="-61.75" font-family="Helvetica,sans-Serif" font-size="10.00">guards buf[] + indices</text>
</g>
<!-- acquireSema&#45;&gt;itemSema -->
</g>
</svg>
